<svg width="64" height="64" viewBox="0 0 64 64" fill="none" xmlns="http://www.w3.org/2000/svg">
<path d="M45.7696 33.228H40.9389C40.894 33.228 40.8577 33.2644 40.8577 33.3093V42.3838C40.8577 42.4287 40.894 42.465 40.9389 42.465H45.7696C45.8145 42.465 45.8509 42.4287 45.8509 42.3838V33.3093C45.8509 33.2644 45.8145 33.228 45.7696 33.228Z" fill="white"/>
<path d="M33.4719 49.9142H30.5464C30.5015 49.9142 30.4651 49.9506 30.4651 49.9955V51.4673C30.4651 51.5122 30.5015 51.5486 30.5464 51.5486H33.4719C33.5167 51.5486 33.5531 51.5122 33.5531 51.4673V49.9955C33.5531 49.9506 33.5167 49.9142 33.4719 49.9142Z" fill="white"/>
<path d="M23.079 33.228H18.2392C18.1943 33.228 18.158 33.2644 18.158 33.3093V42.3838C18.158 42.4287 18.1943 42.465 18.2392 42.465H23.079C23.1238 42.465 23.1602 42.4287 23.1602 42.3838V33.3093C23.1602 33.2644 23.1238 33.228 23.079 33.228Z" fill="white"/>
<path d="M63.9729 30.772L63.9007 29.544L63.7833 28.3251C62.8984 20.7314 59.3318 13.6975 53.7427 8.5237C48.1535 3.34989 40.8668 0.334086 33.228 0.027088L32 0L30.781 0.027088C22.9165 0.343115 15.4763 3.51242 9.82393 8.94808C4.17156 14.3837 0.713318 21.6975 0.0993228 29.544L0.027088 30.772L0 32L0.027088 33.228L0.0993228 34.447C0.69526 42.0677 3.99097 49.228 9.38149 54.6185C14.772 60 21.9323 63.2957 29.553 63.9007L30.781 63.9729L32 64C39.8736 63.9819 47.4311 61.1016 53.2822 55.8916C59.1422 50.6727 62.8623 43.4944 63.7833 35.6749L63.9007 34.447L63.9729 33.219L64 32L63.9729 30.772ZM38.6727 44.6501V31.0519H45.7607C45.8059 31.0519 45.842 31.0158 45.842 30.9707V9.10158H48.0271V44.6501H38.6727ZM26.9707 44.6501V31.0519H29.1467V42.3837C29.1467 42.4289 29.1828 42.465 29.228 42.465H34.7901C34.8352 42.465 34.8713 42.4289 34.8713 42.3837V31.0519H37.0564V44.6501H26.9707ZM20.6772 20.4605L32.009 9.12867L41.0293 18.149C41.0293 18.149 41.0564 18.167 41.0655 18.167C41.0835 18.167 41.0925 18.167 41.1106 18.167C41.1196 18.167 41.1287 18.158 41.1377 18.149C41.1377 18.14 41.1467 18.1219 41.1467 18.1129V9.11964H43.3318V23.5666L32.0451 12.298C32.0451 12.298 31.9639 12.2619 31.9278 12.298L20.6591 23.5666V20.4876L20.6772 20.4605ZM15.991 25.1467L18.167 22.9707V30.9707C18.167 31.0158 18.2032 31.0519 18.2483 31.0519H25.3363V44.6501H15.991V25.1467ZM48.0361 47.2777H15.991V46.2664H48.0361V47.2777ZM45.7156 51.1061C45.7156 51.1061 45.6975 51.1242 45.6975 51.1332C45.6975 51.1422 45.6975 51.1512 45.6975 51.1603C45.6975 51.1693 45.6975 51.1783 45.6975 51.1874C45.6975 51.2054 45.7246 51.2235 45.7427 51.2325C45.7517 51.2325 45.7607 51.2325 45.7697 51.2325H48.0361V54.8713H47.0248V52.3251C47.0248 52.2799 46.9887 52.2438 46.9436 52.2438H44.0181C43.9729 52.2438 43.9368 52.2799 43.9368 52.3251V54.8713H42.9255V48.8939H43.9368V51.1512C43.9368 51.1964 43.9729 51.2325 44.0181 51.2325H45.1828C45.228 51.2325 45.2641 51.1964 45.2641 51.1512V50.2573L46.6366 48.8939H47.9187L45.7156 51.088V51.1061ZM16 49.3995V48.9029H21.1106V49.9052H17.0926C17.0474 49.9052 17.0113 49.9413 17.0113 49.9865V51.4492C17.0113 51.4944 17.0474 51.5305 17.0926 51.5305H21.1106V52.5418H17.0926C17.0474 52.5418 17.0113 52.5779 17.0113 52.623V54.8804H16.5056H16V49.3995ZM27.8375 48.9029V52.5418H25.5801C25.5801 52.5418 25.5621 52.5418 25.553 52.5418C25.535 52.5418 25.5169 52.5688 25.5079 52.5869C25.5079 52.605 25.5079 52.6321 25.5079 52.6501C25.5079 52.6591 25.5169 52.6682 25.526 52.6772L27.7201 54.8713H26.447L25.0745 53.4989V51.5214H26.7449C26.7901 51.5214 26.8262 51.4853 26.8262 51.4402V49.9684C26.8262 49.9232 26.7901 49.8871 26.7449 49.8871H23.8194C23.7743 49.8871 23.7381 49.9232 23.7381 49.9684V54.8623H22.7269V48.8849H27.8375V48.9029ZM36.3883 48.9029H36.8668L40.1535 52.7585C40.1535 52.7585 40.1896 52.7855 40.2167 52.7855C40.2257 52.7855 40.2348 52.7855 40.2438 52.7855C40.2799 52.7765 40.298 52.7404 40.298 52.7043V48.9029H41.3093V54.8804H40.6501L37.3544 51.0248C37.3544 51.0248 37.3002 50.9887 37.2641 50.9977C37.228 51.0068 37.2099 51.0429 37.2099 51.079V54.8804H36.1986V48.9029H36.3883ZM34.5824 54.8804H33.5711V52.623C33.5711 52.5779 33.535 52.5418 33.4898 52.5418H30.5643C30.5192 52.5418 30.4831 52.5779 30.4831 52.623V54.8804H29.4718V48.9029H34.5824V54.8804Z" fill="white"/>
</svg>
